<svg xmlns="http://www.w3.org/2000/svg" fill="none" viewBox="-0.5 -0.5 24 24" id="Google-Icon--Streamline-Svg-Logos.svg" height="24" width="24"><desc>Google Icon Streamline Icon: https://streamlinehq.com</desc><path fill="#4285F4" d="M22.535304166666666 11.750220833333335c0 -0.9258458333333334 -0.07513333333333333 -1.6014708333333334 -0.23771458333333334 -2.3021083333333334H11.725304166666666v4.1788125h6.205687500000001c-0.12506250000000002 1.0384979166666668 -0.8006875 2.6024499999999997 -2.3021083333333334 3.6533583333333333l-0.021035416666666668 0.13991666666666666 3.3427625000000005 2.5895843750000003 0.23158125000000002 0.023119791666666667c2.126925 -1.96434375 3.3531125 -4.854533333333333 3.3531125 -8.282683333333333Z" stroke-width="1"></path><path fill="#34A853" d="M11.725184375000001 22.760416666666668c3.0402645833333333 0 5.59259375 -1.0009791666666668 7.456887500000001 -2.7275125L15.628763541666666 17.280307291666666c-0.9508583333333334 0.66311875 -2.2270708333333333 1.1260416666666668 -3.9035791666666664 1.1260416666666668 -2.9777333333333336 0 -5.50505 -1.9642718750000001 -6.405979166666667 -4.679278125l-0.132034375 0.0112125L1.7113078125 16.428277083333334l-0.045456145833333336 0.12635625C3.517538541666667 20.233028125 7.3210677083333335 22.760416666666668 11.725184375000001 22.760416666666668Z" stroke-width="1"></path><path fill="#FBBC05" d="M5.319348958333333 13.727070833333334c-0.23773854166666666 -0.7006375 -0.3753072916666667 -1.4513958333333334 -0.3753072916666667 -2.2270708333333333 0 -0.7757708333333334 0.13759270833333334 -1.5264333333333333 0.36280104166666666 -2.2270708333333333l-0.006301041666666667 -0.1492125L1.7811247916666668 6.390502083333334l-0.11514854166666667 0.054768750000000005C0.9028051041666667 7.971704166666668 0.4648946875 9.685827083333333 0.4648946875 11.5c0 1.8141729166666667 0.4379104166666667 3.5282 1.2010815625 5.054633333333333l3.6533727083333334 -2.8275625Z" stroke-width="1"></path><path fill="#EB4335" d="M11.725184375000001 4.593579166666667c2.11441875 0 3.5407062500000004 0.9133395833333333 4.353995833333334 1.6766041666666667L19.257109375 3.167291666666667C17.305367708333332 1.3531187500000001 14.765448958333334 0.23958333333333334 11.725184375000001 0.23958333333333334 7.3210677083333335 0.23958333333333334 3.517538541666667 2.7669 1.6658516666666667 6.445270833333334L5.3066989583333335 9.272929166666668c0.9134354166666667 -2.71500625 3.4407520833333334 -4.6793499999999995 6.418485416666667 -4.6793499999999995Z" stroke-width="1"></path></svg>