<svg xmlns="http://www.w3.org/2000/svg" xmlns:xlink="http://www.w3.org/1999/xlink" width="432" height="432" viewBox="0 0 432 432" fill="none">
<g opacity="0.65">
<path d="M196.25 0L235.75 0L215.751 216L196.25 0ZM306.896 19.0635L341.103 38.8135L215.784 215.87L306.896 19.0635ZM125.104 19.0743L90.8969 38.8243L215.785 216.13L125.104 19.0743ZM393.186 90.896L412.936 125.103L215.881 215.784L393.186 90.896ZM38.8246 90.896L19.0746 125.103L215.881 216.215L38.8246 90.896ZM0 235.75L0 196.25L216 216.249L0 235.75ZM432 235.75L216 215.751L432 196.25L432 235.75ZM393.186 341.103L412.936 306.896L216.13 215.784L393.186 341.103ZM306.897 412.936L341.104 393.186L216.216 215.881L306.897 412.936ZM196.25 432L216.249 216L235.75 432L196.25 432ZM125.103 412.926L90.896 393.176L216.215 216.119L125.103 412.926ZM38.8246 341.103L19.0746 306.896L216.13 216.215L38.8246 341.103Z" fill-rule="evenodd"  fill="url(#linear_fill_0871EA91-1D8E-4234-AD69-658B003EA153)" >
</path>
</g>
<rect x="139.25" y="36" width="154" height="42"   fill="#9AB0CA" >
</rect>
<path d="M241.25 211.994L138.851 36.1519L117.567 62.8907L213.608 227.813L241.25 211.994Z"   fill="#CDD8E7" >
</path>
<path d="M126.657 80.3604L149.798 54.9002L145.278 47.2048L122.858 73.6365L126.657 80.3604ZM137.296 97.5005L160.437 72.0403L155.917 64.3449L133.497 90.7766L137.296 97.5005ZM147.935 115.959L171.076 90.499L166.556 82.8036L144.136 109.235L147.935 115.959ZM158.574 134.418L181.715 108.958L177.195 101.262L154.775 127.694L158.574 134.418Z" fill-rule="evenodd"  fill="#FFFFFF" fill-opacity="0.3">
</path>
<path d="M313.933 62.8905L292.649 36.1518L190.25 211.994L217.892 227.812L313.933 62.8905Z"   fill="#CDD8E7" >
</path>
<path d="M286.222 47.2048L281.701 54.9002L304.843 80.3604L308.642 73.6365L286.222 47.2048ZM275.583 64.3449L271.063 72.0403L294.204 97.5005L298.003 90.7766L275.583 64.3449ZM264.944 82.8036L260.424 90.499L283.565 115.959L287.364 109.235L264.944 82.8036ZM254.305 101.262L249.785 108.958L272.926 134.418L276.725 127.694L254.305 101.262Z" fill-rule="evenodd"  fill="#FFFFFF" fill-opacity="0.3">
</path>
<g filter="url(#filter_ED99B328-DD48-4D13-8D79-E309806E50D8)">
<circle cx="215.75" cy="216.5" r="115.5"   fill="url(#linear_fill_ED99B328-DD48-4D13-8D79-E309806E50D8)" >
</circle>
</g>
<circle cx="215.75" cy="216.5" r="88.5"   fill="url(#linear_fill_EB4476CA-3D76-4B2D-9D09-0A9BDB4980E8)" >
</circle>
<circle cx="215.74997194657414" cy="216.50009401688664" r="76.40683229813665"   fill="url(#linear_fill_808C32DA-3F35-4F53-B722-AB29E79C6F74)" >
</circle>
<g filter="url(#filter_CA826207-5979-4059-A4CC-E47A77E98822)">
<path d="M166.25 200.526L190.75 224.353L184.968 258L215.25 242.116L245.532 258L239.75 224.353L264.25 200.526L230.391 195.616L215.25 165L200.109 195.616L166.25 200.526Z"   fill="#F2F2F2" >
</path>
</g>
<g mask="url(#mask-CA826207-5979-4059-A4CC-E47A77E98822)">
<path d="M215.25 216.409L230.392 195.614L215.25 165L215.25 216.409Z"   fill="#A1B9C1" fill-opacity="0.31">
</path>
</g>
<g mask="url(#mask-CA826207-5979-4059-A4CC-E47A77E98822)">
<path d="M215.25 216.409L200.109 195.614L166.25 200.523L215.25 216.409Z"   fill="#B7D0D1" fill-opacity="0.31">
</path>
</g>
<g mask="url(#mask-CA826207-5979-4059-A4CC-E47A77E98822)">
<path d="M215.25 216.409L190.75 224.352L184.967 258L215.25 216.409Z"   fill="#B7D0D1" fill-opacity="0.31">
</path>
</g>
<g mask="url(#mask-CA826207-5979-4059-A4CC-E47A77E98822)">
<path d="M215.25 216.409L215.25 242.114L245.534 258L215.25 216.409Z"   fill="#B7D0D1" fill-opacity="0.31">
</path>
</g>
<g mask="url(#mask-CA826207-5979-4059-A4CC-E47A77E98822)">
<path d="M215.25 216.409L239.75 224.352L264.25 200.523L215.25 216.409Z"   fill="#B7D0D1" fill-opacity="0.31">
</path>
</g>
<g filter="url(#filter_88C233D2-E979-4597-86C8-13B882CC9AAF)">
<path d="M219.48 323L218.734 318.658L221.895 315.584L217.526 314.95L215.573 311L213.619 314.95L209.25 315.584L212.411 318.658L211.665 323L215.573 320.95L219.48 323Z"   fill="#FFF5EA" >
</path>
</g>
<g filter="url(#filter_062BD08C-4275-4B6B-A360-AB70605CD27B)">
<path d="M238.25 311.584L241.411 314.658L240.665 319L244.573 316.95L248.48 319L247.734 314.658L250.895 311.584L246.526 310.95L244.573 307L242.619 310.95L238.25 311.584Z"   fill="#FFF5EA" >
</path>
</g>
<g filter="url(#filter_021AFE54-33D6-4479-9F67-9841DA70D0E2)">
<path d="M180.25 311.584L183.411 314.658L182.665 319L186.573 316.95L190.48 319L189.734 314.658L192.895 311.584L188.526 310.95L186.573 307L184.619 310.95L180.25 311.584Z"   fill="#FFF5EA" >
</path>
</g>
<g filter="url(#filter_C53FC7D5-5F23-42A3-A4CA-D1674ECDEBCE)">
<path d="M273.734 302.658L276.895 299.584L272.526 298.95L270.573 295L268.619 298.95L264.25 299.584L267.411 302.658L266.665 307L270.573 304.95L274.48 307L273.734 302.658Z"   fill="#FFF5EA" >
</path>
</g>
<g filter="url(#filter_D3F1A2F4-8D24-4381-9AB4-1A64D5A2BC2E)">
<path d="M156.411 302.658L155.665 307L159.573 304.95L163.48 307L162.734 302.658L165.895 299.584L161.526 298.95L159.573 295L157.619 298.95L153.25 299.584L156.411 302.658Z"   fill="#FFF5EA" >
</path>
</g>
<path d="M358.477 316L365.315 312.413L372.152 316L370.847 308.402L376.379 303.022L368.733 301.913L365.315 295L361.896 301.913L354.25 303.022L359.782 308.402L358.477 316Z"   fill="#D7DFEB" >
</path>
<path d="M356.464 161L360.046 159.121L363.627 161L362.944 157.02L365.841 154.202L361.837 153.621L360.046 150L358.255 153.621L354.25 154.202L357.148 157.02L356.464 161Z"   fill="#D7DFEB" >
</path>
<path d="M75.3576 162.658L74.6115 167L78.5189 164.95L82.4262 167L81.6802 162.658L84.8415 159.584L80.4725 158.95L78.5189 155L76.5652 158.95L72.1963 159.584L75.3576 162.658Z"   fill="#D7DFEB" >
</path>
<path fill-rule="evenodd"  fill="rgba(215, 223, 235, 1)"  d="M16.25 323C19.0114 323 21.25 320.761 21.25 318C21.25 315.239 19.0114 313 16.25 313C13.4886 313 11.25 315.239 11.25 318C11.25 320.761 13.4886 323 16.25 323ZM16.25 315C17.9069 315 19.25 316.343 19.25 318C19.25 319.657 17.9069 321 16.25 321C14.5931 321 13.25 319.657 13.25 318C13.25 316.343 14.5931 315 16.25 315Z">
</path>
<path fill-rule="evenodd"  fill="rgba(215, 223, 235, 1)"  d="M93.25 46C94.9069 46 96.25 44.6569 96.25 43C96.25 41.3431 94.9069 40 93.25 40C91.5931 40 90.25 41.3431 90.25 43C90.25 44.6569 91.5931 46 93.25 46ZM93.25 42C93.8023 42 94.25 42.4477 94.25 43C94.25 43.5523 93.8023 44 93.25 44C92.6977 44 92.25 43.5523 92.25 43C92.25 42.4477 92.6977 42 93.25 42Z">
</path>
<defs>
<radialGradient id="linear_fill_0871EA91-1D8E-4234-AD69-658B003EA153" cx="0" cy="0" r="1" gradientTransform="translate(216 216) rotate(-180) scale(257.5390625, 257.5390625)" gradientUnits="userSpaceOnUse">
<stop offset="0" stop-color="#E3F0FC"  />
<stop offset="1" stop-color="#FFFFFF"  />
</radialGradient>
<linearGradient id="linear_fill_ED99B328-DD48-4D13-8D79-E309806E50D8" x1="215.75" y1="330.9002685546875" x2="215.74999999999997" y2="101.00000000000001" gradientUnits="userSpaceOnUse">
<stop offset="0" stop-color="#96ACC7"  />
<stop offset="1" stop-color="#E0E6EF"  />
</linearGradient>
<filter id="filter_ED99B328-DD48-4D13-8D79-E309806E50D8" x="77.25" y="88" width="277" height="277" filterUnits="userSpaceOnUse" color-interpolation-filters="sRGB">
<feFlood flood-opacity="0" result="feFloodId_ED99B328-DD48-4D13-8D79-E309806E50D8"/>
<feColorMatrix in="SourceAlpha" type="matrix" values="0 0 0 0 0 0 0 0 0 0 0 0 0 0 0 0 0 0 127 0" result="hardAlpha_ED99B328-DD48-4D13-8D79-E309806E50D8"/>
<feOffset dx="0" dy="10"/>
<feGaussianBlur stdDeviation="11.5"/>
<feComposite in2="hardAlpha_ED99B328-DD48-4D13-8D79-E309806E50D8" operator="out"/>
<feColorMatrix type="matrix" values="0 0 0 0 0.7019607843137254 0 0 0 0 0.7372549019607844 0 0 0 0 0.8274509803921568 0 0 0 0.5 0"/>
<feBlend mode="normal" in2="feFloodId_ED99B328-DD48-4D13-8D79-E309806E50D8" result="dropShadow_1_ED99B328-DD48-4D13-8D79-E309806E50D8"/>
<feBlend mode="normal" in="SourceGraphic" in2="dropShadow_1_ED99B328-DD48-4D13-8D79-E309806E50D8" result="shape_ED99B328-DD48-4D13-8D79-E309806E50D8"/>
</filter>
<linearGradient id="linear_fill_EB4476CA-3D76-4B2D-9D09-0A9BDB4980E8" x1="215.74999999999997" y1="128.00000000000003" x2="215.75" y2="304.1573486328125" gradientUnits="userSpaceOnUse">
<stop offset="0" stop-color="#96ACC7"  />
<stop offset="1" stop-color="#E0E6EF"  />
</linearGradient>
<linearGradient id="linear_fill_808C32DA-3F35-4F53-B722-AB29E79C6F74" x1="215.74997194657414" y1="292.17941985515336" x2="215.74997194657414" y2="140.09326171875" gradientUnits="userSpaceOnUse">
<stop offset="0" stop-color="#96ACC7"  />
<stop offset="1" stop-color="#E0E6EF"  />
</linearGradient>
<filter id="filter_CA826207-5979-4059-A4CC-E47A77E98822" x="153.25" y="159" width="124" height="119" filterUnits="userSpaceOnUse" color-interpolation-filters="sRGB">
<feFlood flood-opacity="0" result="feFloodId_CA826207-5979-4059-A4CC-E47A77E98822"/>
<feColorMatrix in="SourceAlpha" type="matrix" values="0 0 0 0 0 0 0 0 0 0 0 0 0 0 0 0 0 0 127 0" result="hardAlpha_CA826207-5979-4059-A4CC-E47A77E98822"/>
<feOffset dx="0" dy="7"/>
<feGaussianBlur stdDeviation="6.5"/>
<feComposite in2="hardAlpha_CA826207-5979-4059-A4CC-E47A77E98822" operator="out"/>
<feColorMatrix type="matrix" values="0 0 0 0 0.09803921568627451 0 0 0 0 0.4627450980392157 0 0 0 0 0.5490196078431373 0 0 0 0.18 0"/>
<feBlend mode="normal" in2="feFloodId_CA826207-5979-4059-A4CC-E47A77E98822" result="dropShadow_1_CA826207-5979-4059-A4CC-E47A77E98822"/>
<feBlend mode="normal" in="SourceGraphic" in2="dropShadow_1_CA826207-5979-4059-A4CC-E47A77E98822" result="shape_CA826207-5979-4059-A4CC-E47A77E98822"/>
</filter>
<mask id="mask-CA826207-5979-4059-A4CC-E47A77E98822" style="mask-type:alpha" maskUnits="userSpaceOnUse">
<path d="M166.25 200.526L190.75 224.353L184.968 258L215.25 242.116L245.532 258L239.75 224.353L264.25 200.526L230.391 195.616L215.25 165L200.109 195.616L166.25 200.526Z"   fill="#F2F2F2" >
</path>
</mask>
<filter id="filter_88C233D2-E979-4597-86C8-13B882CC9AAF" x="196.25" y="305" width="38.6451416015625" height="38" filterUnits="userSpaceOnUse" color-interpolation-filters="sRGB">
<feFlood flood-opacity="0" result="feFloodId_88C233D2-E979-4597-86C8-13B882CC9AAF"/>
<feColorMatrix in="SourceAlpha" type="matrix" values="0 0 0 0 0 0 0 0 0 0 0 0 0 0 0 0 0 0 127 0" result="hardAlpha_88C233D2-E979-4597-86C8-13B882CC9AAF"/>
<feOffset dx="0" dy="7"/>
<feGaussianBlur stdDeviation="6.5"/>
<feComposite in2="hardAlpha_88C233D2-E979-4597-86C8-13B882CC9AAF" operator="out"/>
<feColorMatrix type="matrix" values="0 0 0 0 0.5490196078431373 0 0 0 0 0.28627450980392155 0 0 0 0 0.09803921568627451 0 0 0 0.18 0"/>
<feBlend mode="normal" in2="feFloodId_88C233D2-E979-4597-86C8-13B882CC9AAF" result="dropShadow_1_88C233D2-E979-4597-86C8-13B882CC9AAF"/>
<feBlend mode="normal" in="SourceGraphic" in2="dropShadow_1_88C233D2-E979-4597-86C8-13B882CC9AAF" result="shape_88C233D2-E979-4597-86C8-13B882CC9AAF"/>
</filter>
<filter id="filter_062BD08C-4275-4B6B-A360-AB70605CD27B" x="225.25" y="301" width="38.6451416015625" height="38" filterUnits="userSpaceOnUse" color-interpolation-filters="sRGB">
<feFlood flood-opacity="0" result="feFloodId_062BD08C-4275-4B6B-A360-AB70605CD27B"/>
<feColorMatrix in="SourceAlpha" type="matrix" values="0 0 0 0 0 0 0 0 0 0 0 0 0 0 0 0 0 0 127 0" result="hardAlpha_062BD08C-4275-4B6B-A360-AB70605CD27B"/>
<feOffset dx="0" dy="7"/>
<feGaussianBlur stdDeviation="6.5"/>
<feComposite in2="hardAlpha_062BD08C-4275-4B6B-A360-AB70605CD27B" operator="out"/>
<feColorMatrix type="matrix" values="0 0 0 0 0.5490196078431373 0 0 0 0 0.28627450980392155 0 0 0 0 0.09803921568627451 0 0 0 0.18 0"/>
<feBlend mode="normal" in2="feFloodId_062BD08C-4275-4B6B-A360-AB70605CD27B" result="dropShadow_1_062BD08C-4275-4B6B-A360-AB70605CD27B"/>
<feBlend mode="normal" in="SourceGraphic" in2="dropShadow_1_062BD08C-4275-4B6B-A360-AB70605CD27B" result="shape_062BD08C-4275-4B6B-A360-AB70605CD27B"/>
</filter>
<filter id="filter_021AFE54-33D6-4479-9F67-9841DA70D0E2" x="167.25" y="301" width="38.6451416015625" height="38" filterUnits="userSpaceOnUse" color-interpolation-filters="sRGB">
<feFlood flood-opacity="0" result="feFloodId_021AFE54-33D6-4479-9F67-9841DA70D0E2"/>
<feColorMatrix in="SourceAlpha" type="matrix" values="0 0 0 0 0 0 0 0 0 0 0 0 0 0 0 0 0 0 127 0" result="hardAlpha_021AFE54-33D6-4479-9F67-9841DA70D0E2"/>
<feOffset dx="0" dy="7"/>
<feGaussianBlur stdDeviation="6.5"/>
<feComposite in2="hardAlpha_021AFE54-33D6-4479-9F67-9841DA70D0E2" operator="out"/>
<feColorMatrix type="matrix" values="0 0 0 0 0.5490196078431373 0 0 0 0 0.28627450980392155 0 0 0 0 0.09803921568627451 0 0 0 0.18 0"/>
<feBlend mode="normal" in2="feFloodId_021AFE54-33D6-4479-9F67-9841DA70D0E2" result="dropShadow_1_021AFE54-33D6-4479-9F67-9841DA70D0E2"/>
<feBlend mode="normal" in="SourceGraphic" in2="dropShadow_1_021AFE54-33D6-4479-9F67-9841DA70D0E2" result="shape_021AFE54-33D6-4479-9F67-9841DA70D0E2"/>
</filter>
<filter id="filter_C53FC7D5-5F23-42A3-A4CA-D1674ECDEBCE" x="251.25" y="289" width="38.6451416015625" height="38" filterUnits="userSpaceOnUse" color-interpolation-filters="sRGB">
<feFlood flood-opacity="0" result="feFloodId_C53FC7D5-5F23-42A3-A4CA-D1674ECDEBCE"/>
<feColorMatrix in="SourceAlpha" type="matrix" values="0 0 0 0 0 0 0 0 0 0 0 0 0 0 0 0 0 0 127 0" result="hardAlpha_C53FC7D5-5F23-42A3-A4CA-D1674ECDEBCE"/>
<feOffset dx="0" dy="7"/>
<feGaussianBlur stdDeviation="6.5"/>
<feComposite in2="hardAlpha_C53FC7D5-5F23-42A3-A4CA-D1674ECDEBCE" operator="out"/>
<feColorMatrix type="matrix" values="0 0 0 0 0.5490196078431373 0 0 0 0 0.28627450980392155 0 0 0 0 0.09803921568627451 0 0 0 0.18 0"/>
<feBlend mode="normal" in2="feFloodId_C53FC7D5-5F23-42A3-A4CA-D1674ECDEBCE" result="dropShadow_1_C53FC7D5-5F23-42A3-A4CA-D1674ECDEBCE"/>
<feBlend mode="normal" in="SourceGraphic" in2="dropShadow_1_C53FC7D5-5F23-42A3-A4CA-D1674ECDEBCE" result="shape_C53FC7D5-5F23-42A3-A4CA-D1674ECDEBCE"/>
</filter>
<filter id="filter_D3F1A2F4-8D24-4381-9AB4-1A64D5A2BC2E" x="140.25" y="289" width="38.6451416015625" height="38" filterUnits="userSpaceOnUse" color-interpolation-filters="sRGB">
<feFlood flood-opacity="0" result="feFloodId_D3F1A2F4-8D24-4381-9AB4-1A64D5A2BC2E"/>
<feColorMatrix in="SourceAlpha" type="matrix" values="0 0 0 0 0 0 0 0 0 0 0 0 0 0 0 0 0 0 127 0" result="hardAlpha_D3F1A2F4-8D24-4381-9AB4-1A64D5A2BC2E"/>
<feOffset dx="0" dy="7"/>
<feGaussianBlur stdDeviation="6.5"/>
<feComposite in2="hardAlpha_D3F1A2F4-8D24-4381-9AB4-1A64D5A2BC2E" operator="out"/>
<feColorMatrix type="matrix" values="0 0 0 0 0.5490196078431373 0 0 0 0 0.28627450980392155 0 0 0 0 0.09803921568627451 0 0 0 0.18 0"/>
<feBlend mode="normal" in2="feFloodId_D3F1A2F4-8D24-4381-9AB4-1A64D5A2BC2E" result="dropShadow_1_D3F1A2F4-8D24-4381-9AB4-1A64D5A2BC2E"/>
<feBlend mode="normal" in="SourceGraphic" in2="dropShadow_1_D3F1A2F4-8D24-4381-9AB4-1A64D5A2BC2E" result="shape_D3F1A2F4-8D24-4381-9AB4-1A64D5A2BC2E"/>
</filter>
</defs>
</svg>
